Coordinates
version=1
nRows=22
nColumns=24
inDegrees=yes

Units are S.I. units (second, meters, Newtons, ...)
Angles are in degrees.

endheader
time	pelvis_tilt	pelvis_list	pelvis_rotation	pelvis_tx	pelvis_ty	pelvis_tz	hip_flexion_r	hip_adduction_r	hip_rotation_r	knee_angle_r	ankle_angle_r	subtalar_angle_r	mtp_angle_r	hip_flexion_l	hip_adduction_l	hip_rotation_l	knee_angle_l	ankle_angle_l	subtalar_angle_l	mtp_angle_l	lumbar_extension	lumbar_bending	lumbar_rotation
      3.36500000	     -4.10925302	      8.47967870	     -6.86171908	     -2.48873074	     -0.04852472	      0.45294449	     11.81077466	    -12.98846341	     -0.04061559	    -65.75292082	    -26.52257938	     10.97059648	     24.65213270	     27.75073069	     12.75954985	     -0.88869348	    -30.89674703	     -0.62557638	     11.08399227	     15.93385775	      1.88397868	     -9.03364177	     10.26103425
      3.37000000	     -4.02842014	      8.48629668	     -6.62597080	     -2.48121631	     -0.04701582	      0.45221838	     12.63271012	    -12.86726631	      0.09900316	    -66.39748300	    -25.38335539	     10.41335076	     25.05574325	     26.85502726	     13.01474063	     -0.56819556	    -30.45258549	     -0.30445762	     11.17407054	     16.01960018	      1.81045149	     -9.03210309	      9.96891672
      3.37500000	     -3.94220779	      8.46929918	     -6.38510657	     -2.47368821	     -0.04544736	      0.45149550	     13.43771007	    -12.71379354	      0.22056376	    -66.94765200	    -24.32814078	      9.87517042	     25.41683081	     25.92505072	     13.24336251	     -0.20622930	    -29.97624674	      0.02496227	     11.28194650	     16.08289223	      1.73211843	     -9.00704887	      9.62686329
      3.38000000	     -3.82261169	      8.40784822	     -6.10758547	     -2.46608067	     -0.04378827	      0.45074025	     14.16120959	    -12.52553865	      0.28101056	    -67.38053693	    -23.32882659	      9.44312887	     25.77251877	     24.91707318	     13.44347516	      0.23910457	    -29.46664937	      0.38487530	     11.40835961	     16.11156139	      1.63005794	     -8.94588271	      9.19743681
      3.38500000	     -3.67752998	      8.26079742	     -5.83812911	     -2.45856879	     -0.04200989	      0.44998977	     14.82921304	    -12.21970518	      0.35344576	    -67.69542953	    -22.35934346	      9.08545741	     26.13501725	     23.87194923	     13.54822858	      0.71522237	    -28.96230867	      0.69156844	     11.49249793	     16.02460200	      1.47315179	     -8.78331668	      8.78597488
      3.39000000	     -3.60046880	      8.12931254	     -5.59216759	     -2.45099160	     -0.04030581	      0.44929105	     15.57998496	    -11.91737943	      0.43752260	    -67.94606775	    -21.45472876	      8.73945182	     26.44016187	     22.87921053	     13.63556515	      1.18993560	    -28.41534396	      0.98979789	     11.59846282	     15.99301958	      1.42774268	     -8.63229383	      8.45227597
      3.39500000	     -3.48631728	      7.92822747	     -5.31863836	     -2.44351995	     -0.03854401	      0.44853532	     16.25683454	    -11.53931798	      0.49376705	    -68.09427317	    -20.56916414	      8.51122223	     26.75756120	     21.84600569	     13.66273980	      1.72538697	    -27.88457832	      1.25721146	     11.65620750	     15.89690370	      1.30577558	     -8.40424220	      8.01862268
      3.40000000	     -3.38909956	      7.71118835	     -5.04741537	     -2.43600244	     -0.03679442	      0.44779064	     16.93230247	    -11.14410174	      0.53270978	    -68.15151033	    -19.72911519	      8.31706000	     27.05277721	     20.81065943	     13.65969550	      2.27780901	    -27.32359106	      1.50669142	     11.68040257	     15.78109376	      1.22138648	     -8.15800708	      7.61700432
      3.40500000	     -3.32837863	      7.46867182	     -4.77560368	     -2.42845516	     -0.03508111	      0.44706056	     17.62791777	    -10.71776580	      0.55332764	    -68.12217911	    -18.94156501	      8.15039445	     27.30519700	     19.79880123	     13.61342646	      2.85426734	    -26.73928774	      1.74055566	     11.69323384	     15.68569656	      1.19389666	     -7.88031167	      7.27832846
      3.41000000	     -3.22185342	      7.20106508	     -4.46028492	     -2.42102650	     -0.03336136	      0.44626993	     18.24773507	    -10.28291476	      0.52840136	    -68.01036575	    -18.16271519	      8.06591370	     27.56578994	     18.74612980	     13.55494772	      3.49106952	    -26.16936139	      1.92569672	     11.63159342	     15.51631726	      1.07798731	     -7.58580472	      6.74699021
      3.41500000	     -3.14170328	      6.91743208	     -4.13728631	     -2.41356039	     -0.03168714	      0.44547648	     18.87244231	     -9.83805742	      0.47484417	    -67.81150111	    -17.42661888	      7.99151395	     27.78492686	     17.70540254	     13.46795941	      4.16006327	    -25.57305125	      2.09733695	     11.53127628	     15.33761402	      1.00859772	     -7.27016459	      6.27839973
      3.42000000	     -3.07983718	      6.61285492	     -3.79821488	     -2.40613375	     -0.03006135	      0.44468156	     19.49821946	     -9.37585605	      0.39823646	    -67.53438221	    -16.73170390	      7.93859995	     27.95761299	     16.68508935	     13.34696566	      4.85862943	    -24.97350148	      2.24008834	     11.40740656	     15.15547715	      0.95362417	     -6.93448127	      5.78332183
      3.42500000	     -3.02176775	      6.29792794	     -3.43014928	     -2.39872292	     -0.02848796	      0.44384377	     20.10314716	     -8.92438765	      0.27670753	    -67.17801288	    -16.06250520	      7.90081917	     28.08513582	     15.66478124	     13.21290396	      5.59984031	    -24.36398113	      2.35931666	     11.23283447	     14.95019666	      0.90247381	     -6.59037833	      5.25798399
      3.43000000	     -2.96809320	      5.98036739	     -3.04231280	     -2.39134781	     -0.02698860	      0.44298307	     20.69651697	     -8.49098523	      0.11870959	    -66.75249989	    -15.41782967	      7.86501452	     28.15869606	     14.65022713	     13.06865042	      6.37234645	    -23.74798140	      2.46767183	     11.00472170	     14.72700679	      0.85370774	     -6.24450247	      4.70333425
      3.43500000	     -2.92320362	      5.65560673	     -2.63046504	     -2.38400557	     -0.02554403	      0.44210591	     21.27744288	     -8.06776573	     -0.07207970	    -66.25113442	    -14.80096034	      7.83147442	     28.16834039	     13.64619379	     12.90655851	      7.17725006	    -23.12557107	      2.54443972	     10.74263147	     14.47968025	      0.81075995	     -5.89598393	      4.12658916
      3.44000000	     -2.89213393	      5.31885944	     -2.19129423	     -2.37671282	     -0.02415843	      0.44122199	     21.85094276	     -7.64823320	     -0.29419460	    -65.67363990	    -14.21863778	      7.79450142	     28.12116814	     12.66747144	     12.71628458	      7.98957742	    -22.50896923	      2.59660072	     10.47510359	     14.22155726	      0.77628096	     -5.54211138	      3.50380230
      3.44500000	     -2.84978611	      5.00648819	     -1.74604491	     -2.36943190	     -0.02286224	      0.44030268	     22.40176142	     -7.28252996	     -0.54095466	    -65.04245949	    -13.63349349	      7.74469272	     27.96878373	     11.66859314	     12.54661239	      8.85876898	    -21.86974574	      2.63549488	     10.12040729	     13.91254632	      0.73464591	     -5.21088818	      2.91166619
      3.45000000	     -2.83691570	      4.66750905	     -1.26147597	     -2.36223180	     -0.02165059	      0.43936943	     22.96030070	     -6.90969371	     -0.82896275	    -64.33209457	    -13.10518760	      7.68280662	     27.80552733	     10.73214843	     12.32425613	      9.66296986	    -21.26207542	      2.69806599	      9.84343661	     13.65279210	      0.71018624	     -4.85856953	      2.20900528
      3.45500000	     -2.81180472	      4.34671948	     -0.76572969	     -2.35505753	     -0.02050395	      0.43842157	     23.48839701	     -6.58145685	     -1.14065678	    -63.55863690	    -12.58540856	      7.60030832	     27.55235165	      9.78085102	     12.11051412	     10.50885223	    -20.64046321	      2.73849339	      9.51031745	     13.33914684	      0.67223507	     -4.52873483	      1.51766673
      3.46000000	     -2.79300286	      4.03328680	     -0.25380681	     -2.34792233	     -0.01943646	      0.43746784	     24.00432979	     -6.28429736	     -1.47525442	    -62.71853820	    -12.08696505	      7.50729406	     27.23920545	      8.85004722	     11.88373310	     11.33360828	    -20.02402402	      2.78110561	      9.20208940	     13.02764588	      0.63832142	     -4.21204459	      0.80880805
      3.46500000	     -2.77478203	      3.73118109	      0.27110099	     -2.34083456	     -0.01844960	      0.43650881	     24.50348230	     -6.02194253	     -1.82919440	    -61.81584064	    -11.60689309	      7.40259051	     26.86228788	      7.93366942	     11.64982185	     12.14027679	    -19.41285227	      2.83126255	      8.91134935	     12.71131379	      0.59991184	     -3.91086338	      0.08614056
      3.47000000	     -2.75561817	      3.43964154	      0.80267651	     -2.33379134	     -0.01754681	      0.43553909	     24.98385394	     -5.79252969	     -2.19707385	    -60.85139282	    -11.13959395	      7.29487936	     26.41622440	      7.03133246	     11.40787733	     12.92625204	    -18.80993711	      2.89745698	      8.64364650	     12.38863730	      0.55646001	     -3.62274322	     -0.65152192
